<svg xmlns="http://www.w3.org/2000/svg" xmlns:xlink="http://www.w3.org/1999/xlink" width="32" height="16" style=""><rect id="backgroundrect" width="100%" height="100%" x="0" y="0" fill="none" stroke="none"/><g class="currentLayer" style=""><title>Layer 1</title><g id="svg_1"><polygon fill="#ffffff" points="8,11.4 2.6,6 4,4.6 8,8.6 12,4.6 13.4,6 " id="svg_2"/></g><g id="svg_3" class="" fill="#c0cddc" fill-opacity="1">
<path fill="#c0cddc" d="M27.85106855384357,10.549342683882958 c0.8398395038156864,-1.120284178819429 1.306417005935512,-2.4272823874420966 1.306417005935512,-3.9209946258680026 C29.157485559779087,2.9874244768518112 26.264705046636166,0 22.625400530101526,0 S16,2.9874244768518112 16,6.628348058014955 c0,3.640923581163145 2.986096013566885,6.628348058014955 6.625400530101525,6.628348058014955 c1.4930480067834424,0 2.89278051314292,-0.4667850745080955 3.9192510178065367,-1.3069982086226672 l2.7994650127189544,2.800710447048573 c0.18663100084793027,0.18671402980323817 0.4665775021198258,0.28007104470485733 0.6532085029677562,0.28007104470485733 s0.4665775021198258,-0.09335701490161911 0.6532085029677562,-0.28007104470485733 c0.3732620016958606,-0.37342805960647646 0.3732620016958606,-0.933570149016191 0,-1.3069982086226672 L27.85106855384357,10.549342683882958 zM22.625400530101526,11.29619880309591 C20.012566518230503,11.29619880309591 17.866310008479303,9.24234447526029 17.866310008479303,6.628348058014955 S20.012566518230503,1.867140298032382 22.625400530101526,1.867140298032382 s4.759090521622222,2.147211342737239 4.759090521622222,4.7612077599825735 S25.238234541972552,11.29619880309591 22.625400530101526,11.29619880309591 z" id="svg_4" fill-opacity="1"/>
</g></g></svg>